<svg width="32" height="32" viewBox="0 0 32 32" fill="none" xmlns="http://www.w3.org/2000/svg">
<path d="M31 16.0212C31 7.72779 24.3145 1 16.0212 1C7.72779 1 1 7.68547 1 15.9788C1 24.2722 7.68547 31 15.9788 31C19.9563 31 23.7645 29.4344 26.5994 26.6417C29.4344 23.8491 31 19.9986 31 16.0212Z" fill="#231F20"/>
<path d="M31 16.0212C31 7.72779 24.3145 1 16.0212 1C7.72779 1 1 7.68547 1 15.9788C1 24.2722 7.68547 31 15.9788 31C19.9563 31 23.7645 29.4344 26.5994 26.6417C29.4344 23.8491 31 19.9986 31 16.0212Z" stroke="#231F20" stroke-width="0.39"/>
<path d="M24.5684 7.55859C24.0606 7.64322 23.5952 7.81247 23.2144 8.15098C23.299 8.32023 23.3836 8.48948 23.4683 8.65873C23.1721 8.91261 22.8336 9.12418 22.4527 9.33574C22.0296 9.97044 21.3103 10.3089 20.6756 10.7321C21.141 10.0974 21.7334 9.54731 22.3681 9.08187C22.622 8.8703 23.2144 8.65874 22.9605 8.36254C22.4104 8.15098 22.1566 8.5318 21.8604 8.82799C21.2257 9.37806 20.6333 10.0128 20.1255 10.6898C19.5331 11.3245 19.0254 12.0438 18.6446 12.8054C18.5599 13.017 18.3061 13.4401 18.6869 13.6094C19.3216 12.7631 19.787 11.7899 20.5063 11.0706C20.5063 11.1552 20.591 11.1975 20.7179 11.1975C21.7757 10.7744 22.4951 9.8435 23.4259 9.33574C23.2567 9.67425 23.0874 9.92813 22.9182 10.2243C22.7489 10.5205 22.4527 10.7744 22.4951 11.2398C23.0028 11.2398 23.0451 10.4359 23.3836 10.3089C23.5952 10.2243 23.7221 10.3513 23.8914 10.4782C22.8336 12.4669 20.591 13.1862 19.2793 14.9211C19.3639 15.0057 19.4485 15.1326 19.5755 15.175C20.8025 14.0748 22.0719 13.0593 23.3836 12.0861C23.5952 12.3823 23.8068 12.6785 24.103 12.89C23.7645 13.2709 23.3836 13.6094 23.0451 13.9479C22.6643 14.2441 22.2835 14.6249 22.0296 15.048C22.2835 15.2596 22.4951 15.0057 22.6643 14.8788C23.2567 14.4133 23.8491 14.0325 24.5261 13.7363C24.1453 14.4133 23.6798 15.0057 23.1298 15.5558C22.9605 15.725 22.6643 15.9366 22.7489 16.2751C23.3413 16.1482 23.5952 15.6827 24.0183 15.4288C24.0606 15.4711 24.0606 15.5981 24.1453 15.5981C24.3992 15.4288 24.5684 15.2173 24.7377 14.9634C25.0338 14.9211 25.33 14.9211 25.5839 15.048C24.9915 15.6827 24.3991 16.2751 23.7645 16.8675C23.1298 16.7405 22.8336 16.3174 22.2835 16.1058C22.1142 15.852 22.1566 15.2596 21.7757 15.2596C21.6065 15.2596 21.268 15.5981 21.0564 15.7673C20.4217 16.3597 19.9986 17.3752 19.5755 17.9676C19.2793 17.9253 18.9408 18.0522 18.8138 18.3484C18.8984 18.5177 19.0677 18.6869 19.2793 18.6869C19.4908 18.6869 19.7024 18.6446 19.8293 18.5177C20.2525 18.1792 20.5487 17.3329 20.8025 16.9521C20.8025 17.5022 20.8025 18.0522 20.7179 18.6023C20.9295 18.8985 21.141 19.1101 21.3526 19.4063C21.5219 20.2948 20.9295 22.2836 21.945 22.1989C22.4951 21.4373 21.9027 19.9563 22.2412 19.0254C22.622 19.237 23.0874 19.1101 23.3413 18.7293C23.2144 18.4754 22.9605 18.3484 22.8336 18.1369C22.9182 17.9676 22.9182 17.7561 23.0874 17.7137C23.4259 17.7561 23.6375 18.1792 23.976 18.0946C24.1453 18.0522 24.4838 17.6714 24.6953 17.5022C25.3724 16.8675 26.0917 16.1058 26.6417 15.5135C26.6417 14.8364 26.811 14.2018 27.1495 13.6094C27.4034 13.694 27.6996 13.7363 27.9535 13.694H28.3766C28.5881 13.5247 28.7574 13.3132 28.8843 13.1016C28.7574 12.7631 28.3766 12.6785 28.0804 12.5092C28.5035 12.2553 27.9111 11.7899 27.6996 11.6207C27.0226 11.0283 26.0917 10.6051 25.7109 9.92813C25.6685 9.58962 25.5416 9.20881 25.3724 8.91261C25.2031 8.70105 25.0762 8.48948 24.9915 8.2356C24.9492 8.02404 25.1185 7.85479 25.0338 7.60091H24.5684" fill="white"/>
<path d="M22.3258 21.3526C22.2835 21.5642 22.4104 21.7758 22.622 21.8604C22.9605 21.6488 23.2567 21.395 23.5529 21.0988C23.3836 20.8872 23.3413 20.6756 23.1297 20.6756C22.8335 20.6333 22.3258 21.1834 22.3258 21.3526ZM19.9562 19.7024C19.8716 20.2948 20.1255 20.7179 20.1255 21.3526C19.6601 21.6911 19.6177 21.268 19.5331 20.8872C19.4485 20.591 19.3639 20.2525 19.11 20.2948C18.8561 20.3371 18.8138 20.591 18.7715 20.8449C18.8561 21.4796 19.0677 22.072 19.4062 22.622C19.8293 22.6643 20.2101 22.7913 20.5909 22.9605C20.5909 22.0297 20.5063 20.8872 20.5063 19.8717C20.4217 19.7871 20.2947 19.7024 20.1678 19.7024C20.1255 19.6178 20.0409 19.6178 19.9562 19.7024ZM18.1368 16.2751C18.7292 16.5713 19.4908 16.0212 19.8293 15.7673C19.7024 15.6827 19.5754 15.6404 19.4062 15.6404C18.8984 15.6404 18.433 15.8943 18.1368 16.2751ZM18.2214 14.5402C18.0098 14.6672 17.2905 15.0903 17.7983 15.3442C18.2637 14.8364 18.8561 14.4556 19.2792 13.9478C19.2369 13.8632 19.1946 13.7786 19.1946 13.694C18.6869 13.694 18.2637 14.0325 18.2214 14.5402Z" fill="white"/>
<path d="M18.0945 13.6093C17.6291 14.4132 16.952 15.0902 16.1481 15.5557C16.1058 15.5557 16.0635 15.5557 16.0212 15.5133C15.9788 15.5133 15.9365 15.471 15.8942 15.471C15.2172 15.8942 14.6248 16.4019 14.1171 17.0366C14.244 17.4597 14.7518 17.1636 15.0056 16.9943C15.9788 16.3596 16.8251 15.6403 17.6291 14.8363C17.9252 14.4978 18.3484 14.117 18.2637 13.6093H18.0945ZM15.9365 16.952C16.4866 18.0098 17.0367 19.11 17.9252 19.8716C18.0099 19.8293 18.0522 19.7447 18.0945 19.66C17.5444 18.7291 17.2482 17.5444 16.6982 16.6558H16.5289C16.275 16.6135 16.0212 16.7404 15.9365 16.952Z" fill="white"/>
<path d="M13.4824 13.9901C13.3977 13.9477 13.3554 13.8208 13.2285 13.8208C13.0169 13.9901 12.8477 14.1593 12.6784 14.3286C12.4669 14.117 12.5515 13.6516 12.1284 13.6939C11.8745 13.8208 11.4937 14.7094 12.0014 14.794C12.1707 14.8363 12.2553 14.7094 12.4245 14.6671C11.9591 15.2171 11.409 15.8518 11.0282 16.4019C11.2398 15.8941 11.7052 15.3018 11.5783 14.6671C11.2398 14.7517 11.1128 15.1325 10.9859 15.3864C10.6897 15.9788 10.4358 16.6135 10.182 17.2482C10.055 17.5444 9.80113 17.8829 9.84345 18.2214H10.0973C10.9436 17.3328 11.6629 16.2327 12.4245 15.3018C12.6784 14.9633 12.9746 14.6671 13.2708 14.4132C13.3554 14.5401 13.1862 14.9209 13.3977 14.9633C13.7363 14.7517 13.7363 14.3709 13.9055 14.0747C14.2017 13.6092 14.8364 13.3977 15.2595 13.1438C14.4979 14.5824 13.5247 15.7672 12.7631 17.2059C13.0592 17.4597 13.1862 17.2059 13.3554 16.952C13.5247 16.6981 13.6093 16.5288 13.8209 16.6135C13.7786 16.9943 13.2708 17.2059 13.1439 17.5867C13.4401 17.7559 13.6939 17.3751 13.8632 17.1635C14.4979 16.4865 15.2595 15.8095 15.6403 15.0056C15.5557 15.0056 15.5134 14.9633 15.4711 14.8786C15.2172 14.9633 15.0903 15.3018 14.7518 15.2171C14.7941 15.0056 15.0903 14.8363 15.1326 14.5824C15.1749 14.4555 15.0903 14.2863 15.0903 14.1593C15.1749 13.6092 15.6827 13.3554 16.1904 13.1861C15.8942 13.4823 16.1058 14.117 16.0635 14.6671C16.1481 14.794 16.275 14.9209 16.4443 14.9633C16.6982 14.794 16.9097 14.4978 16.952 14.1593C16.952 13.9901 16.8251 13.6516 16.8251 13.3554C16.8251 13.1015 16.7405 12.8476 16.6135 12.636C16.9097 12.2975 16.6135 11.9167 16.3597 11.6628C15.4288 12.5514 14.244 13.0592 13.4824 13.9901ZM15.5557 17.3328C15.3018 17.5867 14.7941 18.306 14.3709 18.5176C14.244 18.5599 14.1594 18.5599 14.0324 18.5599C13.3554 18.8561 12.7207 19.2369 12.1707 19.7023C11.7475 19.9985 11.3667 20.337 10.9859 20.7178C10.9013 20.8025 10.6474 20.9294 10.732 21.141C11.2821 21.0563 11.6629 20.6332 12.0437 20.337C12.4245 19.9985 12.8477 19.66 13.3131 19.4061C13.4401 19.4908 13.6093 19.5331 13.7786 19.5754C14.4133 19.1523 15.0056 18.6868 15.5557 18.1791C15.5557 17.7559 15.8519 17.6713 15.8942 17.3328C15.8096 17.2905 15.7673 17.2482 15.725 17.2482C15.6827 17.2482 15.6403 17.2905 15.5557 17.3328Z" fill="white"/>
<path d="M11.5783 17.9253C11.2821 18.2638 10.9859 18.5177 10.6051 18.7293C9.84342 19.3216 9.33566 19.7025 8.57402 20.2525C8.36246 20.3795 7.60082 20.8026 7.5162 21.0142C7.47388 21.3104 7.55851 21.6065 7.72776 21.8604C8.27783 21.7335 8.78559 21.395 9.16641 20.9719V20.5064C9.63185 20.041 10.1396 19.6601 10.6897 19.3216C10.8589 19.1947 11.1128 18.9408 11.2398 18.9831C11.3667 19.0254 11.409 19.1947 11.5783 19.1524C11.8321 18.5177 12.6361 18.4331 12.763 17.6714C12.7207 17.5868 12.5938 17.5868 12.5091 17.5868C12.4245 17.5868 12.3399 17.5868 12.2976 17.5445C12.086 17.206 12.6784 16.7405 12.2553 16.529C11.7052 17.0367 11.8744 17.5022 11.5783 17.9253ZM7.77007 17.9253C7.72776 18.1792 7.5162 18.3908 7.60082 18.6446C7.8547 18.3908 8.02395 18.0522 8.10858 17.7137C8.23552 17.3329 8.32014 16.9098 8.44708 16.529C8.99715 16.6136 8.61634 17.5445 8.4894 17.883C8.15089 18.56 7.81239 19.1947 7.43157 19.8294C7.26232 20.1256 6.92381 20.4641 7.05075 20.7603C8.27783 20.3372 8.99715 19.1947 9.71648 18.1369C9.58954 18.0522 9.58954 17.9253 9.4626 17.883C9.29335 18.0522 9.12409 18.1792 8.95484 18.2638C8.78559 18.1369 8.95484 17.883 9.03947 17.6714C9.16641 17.206 9.58954 16.8675 10.0973 16.8675C10.3089 16.5713 10.3512 16.1905 10.2242 15.852C10.0973 15.8097 10.0127 15.7673 9.88573 15.7673C9.4626 15.175 9.20872 14.371 8.61634 13.9479C8.02395 14.9211 8.06627 16.6559 7.77007 17.9253ZM7.09306 16.3597H6.96612C6.92381 16.3597 6.8815 16.402 6.83919 16.3597C6.54299 16.6559 6.33143 16.9944 6.11986 17.3752C5.95061 17.6291 5.69673 18.3061 5.40054 18.4331C5.18897 18.4754 4.93509 18.5177 4.72353 18.5177C4.3004 18.6023 3.24257 18.8139 3.20026 19.237V19.2793C3.20026 19.4486 3.6657 19.6601 3.83495 19.6601C4.21577 19.6601 4.55428 19.364 4.85047 19.3216C4.80816 19.4909 4.68122 19.6178 4.72353 19.8294C5.14666 19.5332 5.52748 19.1524 5.78136 18.6869L6.66993 17.4176C6.54299 17.5868 6.58531 17.883 6.75456 18.0099C7.38926 17.206 7.72776 16.1482 8.15089 15.175C8.06627 15.0903 8.06627 14.9634 7.89701 14.9211C7.55851 15.3865 7.38926 15.9366 7.09306 16.3597Z" fill="white"/>
</svg>
